HIERARCHY
ROOT reference
{
  OFFSET 0 0 0
  CHANNELS 6 Xposition Yposition Zposition Zrotation Xrotation Yrotation
  JOINT Hips
  {
    OFFSET 12.79 91.8375 163.408
    CHANNELS 6 Xposition Yposition Zposition Zrotation Xrotation Yrotation
    JOINT Spine
    {
      OFFSET 0 7.81434 0
      CHANNELS 6 Xposition Yposition Zposition Zrotation Xrotation Yrotation
      JOINT Spine1
      {
        OFFSET 0 23.3781 0
        CHANNELS 6 Xposition Yposition Zposition Zrotation Xrotation Yrotation
        JOINT Neck
        {
          OFFSET 0 23.2821 2.11656
          CHANNELS 6 Xposition Yposition Zposition Zrotation Xrotation Yrotation
          JOINT Head
          {
            OFFSET 0 13.3416 -1.90594
            CHANNELS 6 Xposition Yposition Zposition Zrotation Xrotation Yrotation
            End Site
            {
              OFFSET 0 23.8242 0
            }
          }
        }
        JOINT LeftShoulder
        {
          OFFSET 3.82472 21.4916 -0.175476
          CHANNELS 6 Xposition Yposition Zposition Zrotation Xrotation Yrotation
          JOINT LeftArm
          {
            OFFSET 10.8239 0 0
            CHANNELS 6 Xposition Yposition Zposition Zrotation Xrotation Yrotation
            JOINT LeftForeArm
            {
              OFFSET 28.5356 0 0
              CHANNELS 6 Xposition Yposition Zposition Zrotation Xrotation Yrotation
              JOINT LeftHand
              {
                OFFSET 24.5315 0 0
                CHANNELS 6 Xposition Yposition Zposition Zrotation Xrotation Yrotation
                End Site
                {
                  OFFSET 14.2945 0 0
                }
              }
            }
          }
        }
        JOINT RightShoulder
        {
          OFFSET -3.77033 21.4916 -0.175476
          CHANNELS 6 Xposition Yposition Zposition Zrotation Xrotation Yrotation
          JOINT RightArm
          {
            OFFSET -10.8239 0 0
            CHANNELS 6 Xposition Yposition Zposition Zrotation Xrotation Yrotation
            JOINT RightForeArm
            {
              OFFSET -28.5356 0 0
              CHANNELS 6 Xposition Yposition Zposition Zrotation Xrotation Yrotation
              JOINT RightHand
              {
                OFFSET -24.5315 0 0
                CHANNELS 6 Xposition Yposition Zposition Zrotation Xrotation Yrotation
                End Site
                {
                  OFFSET -14.2945 0 0
                }
              }
            }
          }
        }
      }
    }
    JOINT LeftUpLeg
    {
      OFFSET 9.52968 0 0
      CHANNELS 6 Xposition Yposition Zposition Zrotation Xrotation Yrotation
      JOINT LeftLeg
      {
        OFFSET 0 -40.1884 0
        CHANNELS 6 Xposition Yposition Zposition Zrotation Xrotation Yrotation
        JOINT LeftFoot
        {
          OFFSET 0 -39.9954 0
          CHANNELS 6 Xposition Yposition Zposition Zrotation Xrotation Yrotation
          JOINT LeftToeBase
          {
            OFFSET 0 -6.19429 14.2945
            CHANNELS 6 Xposition Yposition Zposition Zrotation Xrotation Yrotation
            End Site
            {
              OFFSET 0 0 3.81187
            }
          }
        }
      }
    }
    JOINT RightUpLeg
    {
      OFFSET -9.52968 0 0
      CHANNELS 6 Xposition Yposition Zposition Zrotation Xrotation Yrotation
      JOINT RightLeg
      {
        OFFSET 0 -40.1884 0
        CHANNELS 6 Xposition Yposition Zposition Zrotation Xrotation Yrotation
        JOINT RightFoot
        {
          OFFSET 0 -39.9954 0
          CHANNELS 6 Xposition Yposition Zposition Zrotation Xrotation Yrotation
          JOINT RightToeBase
          {
            OFFSET 0 -6.19429 14.2945
            CHANNELS 6 Xposition Yposition Zposition Zrotation Xrotation Yrotation
            End Site
            {
              OFFSET 0 0 3.81187
            }
          }
        }
      }
    }
  }
}
MOTION
Frames:	11
Frame Time:	0.004
0 0 0 0 0 -0 -24.239 82.2167 -196.753 1.25078 0.684144 0.462212 3.55271e-015 7.81434 0 -1.86294 -5.50546 -0.717296 -3.55271e-015 23.3781 2.84217e-014 -2.44017 1.43251 -0.607374 0 23.2821 2.11656 3.53031 27.3845 0.055917 0 13.3416 -1.90594 -2.82207 -7.43532 -0.139272 3.82472 21.4916 -0.175476 19.3064 2.27859 5.82836 10.8239 2.84217e-014 -2.84217e-014 -19.8528 2.4341 3.52557 28.5356 0 0 1.07283 -0.85982 1.03333 24.5315 0 0 -3.2499 -0.885729 0.570987 -3.77033 21.4916 -0.175476 -11.4601 2.25468 6.80261 -10.8239 2.84217e-014 0 13.3096 0.811911 -2.20596 -28.5356 0 0 0.561923 1.62289 -1.3791 -24.5315 0 2.84217e-014 0.159575 1.63019 0.360884 9.52968 2.84217e-014 2.84217e-014 0.444463 6.65412 -0.137801 0 -40.1884 0 -4.39215 -5.68065 -3.7461 0 -39.9954 2.84217e-014 5.8961 -4.19416 4.86788 0 -6.19429 14.2945 3.35449e-016 0 -0 -9.52968 0 0 -3.75029 2.59014 0.02257 0 -40.1884 0 2.87889 -0.665683 0.009553 0 -39.9954 0 -3.04583 -7.10049 3.4554 3.55271e-015 -6.19429 14.2945 2.20695e-032 1.59028e-015 -7.95139e-016 
0 0 0 0 0 -0 -24.239 82.2167 -196.753 1.2509 0.668951 0.46221 0 7.81434 0 -1.86353 -5.50545 -0.723389 0 23.3781 0 -2.42543 1.45972 -0.607381 0 23.2821 2.11656 3.5187 27.2733 0.090535 0 13.3416 -1.90594 -2.84037 -7.5068 -0.113929 3.82472 21.4916 -0.175476 19.0988 2.49061 5.83077 10.8239 2.84217e-014 0 -19.6352 2.47657 3.40875 28.5356 -5.68434e-014 2.84217e-014 1.04972 -0.926023 1.03335 24.5315 0 0 -3.21442 -0.952481 0.6074 -3.77033 21.4916 -0.175476 -11.4815 2.25207 6.83197 -10.8239 -1.42109e-014 0 13.2561 0.732388 -2.18593 -28.5356 0 0 0.605504 1.697 -1.35427 -24.5315 -1.42109e-014 -2.84217e-014 0.020062 1.70423 0.425283 9.52968 -1.42109e-014 0 0.448873 6.65806 -0.127736 1.77636e-015 -40.1884 0 -4.39298 -5.65202 -3.77333 -3.55271e-015 -39.9954 -2.84217e-014 5.90236 -4.22657 4.86808 0 -6.19429 14.2945 -5.71506e-016 3.97569e-016 -3.97569e-016 -9.52968 -1.42109e-014 0 -3.75019 2.59732 0.02041 7.10543e-015 -40.1884 0 2.87878 -0.654383 0.000312 7.10543e-015 -39.9954 0 -3.06829 -7.1284 3.48311 0 -6.19429 14.2945 7.45443e-016 -7.95139e-016 -1.59028e-015 
0 0 0 0 0 -0 -24.239 82.2167 -196.753 1.25102 0.653871 0.462209 0 7.81434 0 -1.86398 -5.50545 -0.728069 0 23.3781 -2.84217e-014 -2.42498 1.47454 -0.607385 0 23.2821 2.11656 3.52328 27.2056 0.110359 0 13.3416 -1.90594 -2.85658 -7.51968 -0.099014 3.82472 21.4916 -0.175476 19.309 2.27327 5.78869 10.8239 0 2.84217e-014 -19.8469 2.45338 3.49374 28.5356 0 2.84217e-014 1.06594 -0.769431 1.03331 24.5315 0 2.84217e-014 -3.18588 -0.796497 0.62626 -3.77033 21.4916 -0.175476 -11.4947 2.24047 6.84022 -10.8239 1.42109e-014 -2.84217e-014 13.2331 0.671336 -2.17101 -28.5356 2.84217e-014 0 0.633119 1.7559 -1.3439 -24.5315 0 -2.84217e-014 -0.023247 1.76323 0.445924 9.52968 1.42109e-014 0 0.457783 6.6799 -0.107162 0 -40.1884 2.84217e-014 -4.39671 -5.66819 -3.80021 0 -39.9954 0 5.911 -4.22122 4.86805 -1.77636e-015 -6.19429 14.2945 8.69683e-017 7.95139e-016 -3.97569e-016 -9.52968 0 0 -3.75096 2.61387 0.03708 0 -40.1884 -2.84217e-014 2.87901 -0.650855 0.020613 0 -39.9954 0 -3.05529 -7.11707 3.43217 -7.10543e-015 -6.19429 14.2945 -3.97569e-016 0 -7.95139e-016 
0 0 0 0 0 -0 -24.239 82.2167 -196.753 1.25114 0.640593 0.461611 7.10543e-015 7.81434 -2.84217e-014 -1.86446 -5.50544 -0.733102 -3.55271e-015 23.3781 -2.84217e-014 -2.42005 1.49567 -0.611831 0 23.2821 2.11656 3.50808 27.1181 0.134771 -3.55271e-015 13.3416 -1.90594 -2.85065 -7.49513 -0.076401 3.82472 21.4916 -0.175476 19.102 2.49065 5.81173 10.8239 0 0 -19.6249 2.46465 3.37812 28.5356 -2.84217e-014 0 1.03078 -0.835488 1.02053 24.5315 0 0 -3.1124 -0.862623 0.65824 -3.77033 21.4916 -0.175476 -11.5038 2.23334 6.85419 -10.8239 -4.26326e-014 0 13.1964 0.617565 -2.15881 -28.5356 0 -2.84217e-014 0.704657 1.81512 -1.32939 -24.5315 0 -2.84217e-014 -0.387472 1.82173 0.465524 9.52968 -1.42109e-014 -2.84217e-014 0.45841 6.69014 -0.127827 1.77636e-015 -40.1884 0 -4.40384 -5.66249 -3.76745 0 -39.9954 0 5.9152 -4.22397 4.86806 0 -6.19429 14.2945 -1.61513e-016 -3.97569e-016 -0 -9.52968 0 0 -3.75072 2.62323 0.033792 7.10543e-015 -40.1884 -2.84217e-014 2.87891 -0.642009 0.011614 -7.10543e-015 -39.9954 0 -3.04482 -7.12323 3.4551 3.55271e-015 -6.19429 14.2945 -0 -7.95139e-016 -0 
0 0 0 0 0 -0 -24.239 82.2167 -196.753 1.25123 0.629948 0.460993 0 7.81434 2.84217e-014 -1.86568 -5.50544 -0.735885 0 23.3781 2.84217e-014 -2.41225 1.50263 -0.61351 0 23.2821 2.11656 3.49637 27.0759 0.15206 0 13.3416 -1.90594 -2.84974 -7.52713 -0.061683 3.82472 21.4916 -0.175476 19.0942 2.48556 5.79629 10.8239 0 -2.84217e-014 -19.6098 2.47289 3.36393 28.5356 0 -2.84217e-014 1.01616 -0.775474 1.01638 24.5315 0 0 -3.09554 -0.804146 0.725336 -3.77033 21.4916 -0.175476 -11.5178 2.22926 6.87269 -10.8239 0 2.84217e-014 13.1744 0.591594 -2.15977 -28.5356 0 0 0.717644 1.85388 -1.31782 -24.5315 -5.68434e-014 0 -0.346242 1.86062 0.502654 9.52968 1.42109e-014 2.84217e-014 0.461081 6.69337 -0.119177 0 -40.1884 0 -4.39822 -5.64647 -3.78336 0 -39.9954 0 5.91917 -4.23789 4.87196 0 -6.19429 14.2945 1.98785e-016 3.97569e-016 3.97569e-016 -9.52968 0 2.84217e-014 -3.75079 2.62746 0.0371673 0 -40.1884 0 2.87913 -0.632296 0.031681 7.10543e-015 -39.9954 0 -3.07326 -7.12794 3.4493 0 -6.19429 14.2945 -9.93923e-017 7.95139e-016 7.95139e-016 
0 0 0 0 0 -0 -24.239 82.2167 -196.753 1.25137 0.613657 0.460361 0 7.81434 0 -1.86747 -5.50544 -0.738238 0 23.3781 0 -2.39928 1.5265 -0.614943 7.10543e-015 23.2821 2.11656 3.4825 26.9684 0.182709 -3.55271e-015 13.3416 -1.90594 -2.85682 -7.47086 -0.035364 3.82472 21.4916 -0.175476 19.0943 2.46829 5.78859 10.8239 0 0 -19.6093 2.48338 3.35035 28.5356 0 0 0.998617 -0.702911 1.01871 24.5315 0 -2.84217e-014 -2.94372 -0.73289 0.822097 -3.77033 21.4916 -0.175476 -11.5364 2.23017 6.87218 -10.8239 -1.42109e-014 0 13.1492 0.545595 -2.13012 -28.5356 0 0 0.752788 1.92049 -1.30684 -24.5315 0 0 -0.588539 1.92648 0.502836 9.52968 0 0 0.463216 6.71303 -0.117503 -1.77636e-015 -40.1884 0 -4.40462 -5.649 -3.79876 0 -39.9954 -2.84217e-014 5.91036 -4.24123 4.8848 0 -6.19429 14.2945 -3.23025e-016 3.97569e-016 -3.97569e-016 -9.52968 0 2.84217e-014 -3.75039 2.64245 0.040842 0 -40.1884 2.84217e-014 2.87901 -0.629439 0.021255 -7.10543e-015 -39.9954 2.84217e-014 -3.05145 -7.13341 3.4388 -7.10543e-015 -6.19429 14.2945 3.97569e-016 1.59028e-015 7.95139e-016 
0 0 0 0 0 -0 -24.239 82.2167 -196.753 1.24879 0.607404 0.459726 3.55271e-015 7.81434 2.84217e-014 -1.86939 -5.50543 -0.740483 0 23.3781 0 -2.40159 1.53531 -0.61736 0 23.2821 2.11656 3.48506 26.9171 0.199841 0 13.3416 -1.90594 -2.869 -7.46826 -0.021394 3.82472 21.4916 -0.175476 19.0952 2.47036 5.77221 10.8239 -2.84217e-014 2.84217e-014 -19.5991 2.46812 3.33373 28.5356 2.84217e-014 0 0.987712 -0.643881 1.02053 24.5315 0 0 -2.91004 -0.674161 0.843756 -3.77033 21.4916 -0.175476 -11.5453 2.22447 6.89482 -10.8239 1.42109e-014 0 13.1307 0.50833 -2.13238 -28.5356 0 2.84217e-014 0.760384 1.96899 -1.29438 -24.5315 -4.26326e-014 0 -0.586341 1.97485 0.530299 9.52968 0 2.84217e-014 0.469976 6.71592 -0.113787 -1.77636e-015 -40.1884 -2.84217e-014 -4.4126 -5.64678 -3.80907 0 -39.9954 0 5.92638 -4.23862 4.88509 0 -6.19429 14.2945 2.60905e-016 7.95139e-016 3.97569e-016 -9.52968 0 0 -3.74713 2.64351 0.039348 0 -40.1884 2.84217e-014 2.87897 -0.618918 0.018427 0 -39.9954 0 -3.04621 -7.14503 3.44993 0 -6.19429 14.2945 -3.97569e-016 0 -1.59028e-015 
0 0 0 0 0 -0 -24.239 82.2165 -196.753 1.24625 0.596482 0.459092 7.10543e-015 7.81434 0 -1.87139 -5.50543 -0.742815 -7.10543e-015 23.3781 -2.84217e-014 -2.40663 1.54654 -0.619984 0 23.2821 2.11656 3.47875 26.8374 0.222555 0 13.3416 -1.90594 -2.86379 -7.42328 0.000941 3.82472 21.4916 -0.175476 19.1002 2.47152 5.75727 10.8239 0 0 -19.5937 2.45796 3.32271 28.5356 0 -2.84217e-014 0.980411 -0.580337 1.01331 24.5315 0 0 -2.88853 -0.61132 0.884016 -3.77033 21.4916 -0.175476 -11.549 2.21296 6.92502 -10.8239 2.84217e-014 -2.84217e-014 13.1031 0.472304 -2.13101 -28.5356 -2.84217e-014 0 0.762429 2.00833 -1.29793 -24.5315 0 0 -0.438142 2.0148 0.569905 9.52968 0 2.84217e-014 0.47637 6.7229 -0.110022 0 -40.1884 0 -4.41374 -5.63903 -3.79464 0 -39.9954 0 5.90868 -4.2585 4.87951 0 -6.19429 14.2945 -1.61513e-016 7.95139e-016 -3.97569e-016 -9.52968 0 2.84217e-014 -3.73711 2.6486 0.029988 0 -40.1884 0 2.87901 -0.611993 0.021577 7.10543e-015 -39.9954 0 -3.03752 -7.14082 3.45302 0 -6.19429 14.2945 7.95139e-016 -7.95139e-016 -2.38542e-015 
0 0 0 0 0 -0 -24.2399 82.2162 -196.753 1.24451 0.581333 0.458469 0 7.81434 0 -1.87335 -5.50543 -0.744588 0 23.3781 0 -2.41044 1.5584 -0.621923 0 23.2821 2.11656 3.49026 26.7753 0.243595 -3.55271e-015 13.3416 -1.90594 -2.88168 -7.41916 0.01824 3.82472 21.4916 -0.175476 19.3125 2.2512 5.70359 10.8239 0 -2.84217e-014 -19.8092 2.45583 3.41373 28.5356 0 0 0.983021 -0.410084 1.00566 24.5315 -2.84217e-014 -2.84217e-014 -2.6633 -0.442617 1.02594 -3.77033 21.4916 -0.175476 -11.5488 2.19291 6.93753 -10.8239 0 0 13.0841 0.468028 -2.12892 -28.5356 0 0 0.69872 2.10189 -1.29197 -24.5315 1.42109e-014 -2.84217e-014 -0.052049 2.1095 0.583093 9.52968 -1.42109e-014 0 0.477711 6.73767 -0.10805 0 -40.1884 0 -4.41393 -5.63765 -3.79482 3.55271e-015 -39.9954 0 5.92612 -4.26054 4.87342 -1.77636e-015 -6.19429 14.2945 2.85753e-016 0 3.97569e-016 -9.52968 0 0 -3.74354 2.66221 0.048195 -7.10543e-015 -40.1884 2.84217e-014 2.89188 -0.605045 0.048307 -7.10543e-015 -39.9954 -2.84217e-014 -3.09141 -7.16037 3.41112 3.55271e-015 -6.19429 14.2945 3.47873e-016 7.95139e-016 -0 
0 0 0 0 0 -0 -24.2408 82.2159 -196.753 1.24376 0.571943 0.457864 -3.55271e-015 7.81434 0 -1.87518 -5.50543 -0.745597 3.55271e-015 23.3781 -2.84217e-014 -2.40682 1.56698 -0.623028 7.10543e-015 23.2821 2.11656 3.48979 26.7261 0.263426 3.55271e-015 13.3416 -1.90594 -2.90312 -7.42397 0.0325753 3.82472 21.4916 -0.175476 19.1023 2.46437 5.7269 10.8239 -2.84217e-014 0 -19.575 2.47299 3.29629 28.5356 0 0 0.924049 -0.433228 0.993228 24.5315 2.84217e-014 2.84217e-014 -2.68281 -0.466464 1.07264 -3.77033 21.4916 -0.175476 -11.5673 2.19809 6.95955 -10.8239 1.42109e-014 0 13.0705 0.434848 -2.12721 -28.5356 0 0 0.774521 2.07029 -1.2754 -24.5315 1.42109e-014 0 -0.462762 2.07661 0.574051 9.52968 -1.42109e-014 0 0.477125 6.7456 -0.098184 -1.77636e-015 -40.1884 0 -4.40453 -5.63528 -3.79966 -3.55271e-015 -39.9954 -2.84217e-014 5.91962 -4.25964 4.86079 0 -6.19429 14.2945 -4.09993e-016 7.95139e-016 -7.95139e-016 -9.52968 0 0 -3.74065 2.66422 0.03758 7.10543e-015 -40.1884 0 2.87942 -0.592708 0.019161 0 -39.9954 0 -3.07453 -7.15764 3.44595 -1.42109e-014 -6.19429 14.2945 7.95139e-016 0 -7.95139e-016 
0 0 0 0 0 -0 -24.2417 82.2157 -196.753 1.24351 0.563051 0.457284 3.55271e-015 7.81434 -2.84217e-014 -1.87689 -5.50543 -0.746366 3.55271e-015 23.3781 0 -2.39148 1.56284 -0.623827 -7.10543e-015 23.2821 2.11656 3.49274 26.6917 0.283619 3.55271e-015 13.3416 -1.90594 -2.92719 -7.4273 0.047537 3.82472 21.4916 -0.175476 19.308 2.25201 5.65424 10.8239 0 -2.84217e-014 -19.82 2.49557 3.38736 28.5356 5.68434e-014 -2.84217e-014 0.990502 -0.286688 1.02771 24.5315 0 0 -2.69227 -0.320861 1.07474 -3.77033 21.4916 -0.175476 -11.5833 2.19661 6.96657 -10.8239 -1.42109e-014 0 13.0555 0.436334 -2.12701 -28.5356 2.84217e-014 0 0.784243 2.08529 -1.27534 -24.5315 1.42109e-014 0 -0.525057 2.09132 0.587629 9.52968 -1.42109e-014 -2.84217e-014 0.476933 6.74514 -0.091491 0 -40.1884 0 -4.40887 -5.62007 -3.8117 0 -39.9954 0 5.93964 -4.27267 4.86672 0 -6.19429 14.2945 3.23025e-016 7.95139e-016 -0 -9.52968 0 0 -3.73714 2.66923 0.045802 7.10543e-015 -40.1884 2.84217e-014 2.88505 -0.587952 0.050845 -7.10543e-015 -39.9954 -2.84217e-014 -3.05735 -7.15898 3.40656 0 -6.19429 14.2945 1.98785e-016 7.95139e-016 -0 
